<svg width="40" height="40" viewBox="0 0 40 40" fill="none" xmlns="http://www.w3.org/2000/svg">
<mask id="mask0_33_55" style="mask-type:alpha" maskUnits="userSpaceOnUse" x="0" y="0" width="40" height="40">
<rect width="40" height="40" fill="#D9D9D9"/>
</mask>
<g mask="url(#mask0_33_55)">
<path d="M24.0279 12.3046C24.0279 11.2499 23.6811 10.3961 22.9875 9.74334C22.2939 9.09028 21.3929 8.76375 20.2846 8.76375C19.5615 8.76375 18.8987 8.90292 18.2962 9.18125C17.694 9.45958 17.1693 9.87139 16.7221 10.4167C16.0649 11.1389 15.2842 11.5601 14.38 11.6804C13.4761 11.801 12.7105 11.6065 12.0833 11.0971C11.4536 10.6343 11.1157 10.0188 11.0696 9.25042C11.0232 8.48209 11.2732 7.74125 11.8196 7.02792C12.8199 5.72264 14.0386 4.73431 15.4758 4.06292C16.9131 3.39125 18.5183 3.05542 20.2917 3.05542C23.1897 3.05542 25.5276 3.89834 27.3054 5.58417C29.0832 7.26973 29.9721 9.46848 29.9721 12.1804C29.9721 13.5788 29.6064 14.9885 28.875 16.4096C28.1436 17.831 27.0418 19.3101 25.5696 20.8471C25.0696 21.3749 24.6551 21.8769 24.3262 22.3533C23.9976 22.8294 23.7268 23.3367 23.5137 23.875C23.1435 24.6158 22.6749 25.1899 22.1079 25.5971C21.541 26.0046 20.9512 26.2083 20.3387 26.2083C19.5649 26.2083 18.8936 25.9538 18.325 25.4446C17.7564 24.9351 17.4721 24.3218 17.4721 23.6046C17.4721 22.4315 17.773 21.2899 18.375 20.1796C18.9769 19.069 19.8368 18.1043 20.9546 17.2854C22.0312 16.4749 22.8126 15.6738 23.2987 14.8821C23.7849 14.0904 24.0279 13.2313 24.0279 12.3046ZM20.2833 37.9721C19.1408 37.9721 18.1714 37.5732 17.375 36.7754C16.5786 35.9774 16.1804 35.0097 16.1804 33.8725C16.1804 32.7356 16.5787 31.7665 17.3754 30.9654C18.1718 30.1643 19.144 29.7638 20.2921 29.7638C21.4399 29.7638 22.4143 30.1651 23.2154 30.9679C24.0162 31.7704 24.4167 32.7403 24.4167 33.8775C24.4167 35.0147 24.0135 35.9815 23.2071 36.7779C22.4004 37.574 21.4258 37.9721 20.2833 37.9721Z" fill="white"/>
</g>
</svg>
