<svg width="40" height="40" viewBox="0 0 40 40" fill="none" xmlns="http://www.w3.org/2000/svg">
<mask id="mask0_33_49" style="mask-type:alpha" maskUnits="userSpaceOnUse" x="0" y="0" width="40" height="40">
<rect width="40" height="40" fill="#D9D9D9"/>
</mask>
<g mask="url(#mask0_33_49)">
<path d="M8.19459 36.1667C6.98154 36.1667 5.9514 35.7431 5.10418 34.8958C4.25695 34.0486 3.83334 33.0185 3.83334 31.8054V27.4029C3.83334 26.7963 4.04557 26.2811 4.47001 25.8575C4.89473 25.4339 5.41098 25.2221 6.01876 25.2221C6.62654 25.2221 7.14112 25.4339 7.56251 25.8575C7.9839 26.2811 8.19459 26.7963 8.19459 27.4029V31.8054H12.5971C13.2038 31.8054 13.7189 32.0178 14.1425 32.4425C14.5661 32.8669 14.7779 33.3831 14.7779 33.9908C14.7779 34.5989 14.5661 35.1135 14.1425 35.5346C13.7189 35.956 13.2038 36.1667 12.5971 36.1667H8.19459ZM31.8054 36.1667H27.4029C26.7963 36.1667 26.2811 35.9545 25.8575 35.53C25.4339 35.1053 25.2221 34.589 25.2221 33.9813C25.2221 33.3735 25.4339 32.8589 25.8575 32.4375C26.2811 32.0161 26.7963 31.8054 27.4029 31.8054H31.8054V27.4029C31.8054 26.7963 32.0178 26.2811 32.4425 25.8575C32.867 25.4339 33.3831 25.2221 33.9908 25.2221C34.5989 25.2221 35.1182 25.4339 35.5488 25.8575C35.9793 26.2811 36.1946 26.7963 36.1946 27.4029V31.8054C36.1946 33.0185 35.7663 34.0486 34.9096 34.8958C34.0532 35.7431 33.0185 36.1667 31.8054 36.1667ZM3.83334 8.19459C3.83334 6.98153 4.25695 5.94681 5.10418 5.09042C5.9514 4.23375 6.98154 3.80542 8.19459 3.80542H12.5971C13.2038 3.80542 13.7189 4.02236 14.1425 4.45625C14.5661 4.89014 14.7779 5.41098 14.7779 6.01875C14.7779 6.62653 14.5661 7.14111 14.1425 7.5625C13.7189 7.98389 13.2038 8.19459 12.5971 8.19459H8.19459V12.5971C8.19459 13.2038 7.98223 13.7189 7.55751 14.1425C7.13307 14.5661 6.61696 14.7779 6.00918 14.7779C5.40112 14.7779 4.88654 14.5661 4.46543 14.1425C4.04404 13.7189 3.83334 13.2038 3.83334 12.5971V8.19459ZM36.1946 8.19459V12.5971C36.1946 13.2038 35.9777 13.7189 35.5438 14.1425C35.1099 14.5661 34.589 14.7779 33.9813 14.7779C33.3735 14.7779 32.8589 14.5661 32.4375 14.1425C32.0161 13.7189 31.8054 13.2038 31.8054 12.5971V8.19459H27.4029C26.7963 8.19459 26.2811 7.98223 25.8575 7.5575C25.4339 7.13306 25.2221 6.61695 25.2221 6.00917C25.2221 5.40111 25.4339 4.88181 25.8575 4.45125C26.2811 4.0207 26.7963 3.80542 27.4029 3.80542H31.8054C33.0185 3.80542 34.0532 4.23375 34.9096 5.09042C35.7663 5.94681 36.1946 6.98153 36.1946 8.19459ZM21.25 29.2629C21.6758 28.8365 21.8888 28.3365 21.8888 27.7629C21.8888 27.1896 21.6756 26.6968 21.2492 26.2846C20.8228 25.8726 20.3228 25.6667 19.7492 25.6667C19.1756 25.6667 18.6828 25.8729 18.2708 26.2854C17.8589 26.6979 17.6529 27.191 17.6529 27.7646C17.6529 28.3382 17.8592 28.8379 18.2717 29.2638C18.6842 29.6899 19.1772 29.9029 19.7508 29.9029C20.3245 29.9029 20.8242 29.6896 21.25 29.2629ZM20.0554 13.4167C20.5943 13.4167 21.0624 13.5911 21.4596 13.94C21.8568 14.2889 22.0554 14.7301 22.0554 15.2638C22.0554 15.819 21.8946 16.3208 21.5729 16.7692C21.251 17.2172 20.8933 17.6321 20.5 18.0138C19.6758 18.801 19.0925 19.47 18.75 20.0208C18.4075 20.5717 18.1807 21.2407 18.0696 22.0279C18.014 22.4815 18.1471 22.8611 18.4688 23.1667C18.7907 23.4722 19.181 23.625 19.6396 23.625C20.0929 23.625 20.4746 23.4722 20.7846 23.1667C21.0949 22.8611 21.3333 22.4954 21.5 22.0696C21.6389 21.6435 21.8379 21.2522 22.0971 20.8958C22.3565 20.5394 22.7131 20.1343 23.1667 19.6804C23.9814 18.8657 24.5717 18.0833 24.9375 17.3333C25.3033 16.5833 25.4863 15.8188 25.4863 15.0396C25.4863 13.5874 24.9921 12.4006 24.0038 11.4792C23.0157 10.5578 21.7506 10.0971 20.2083 10.0971C18.9903 10.0971 17.9011 10.3449 16.9408 10.8404C15.9803 11.3357 15.1713 12.0417 14.5138 12.9583C14.2546 13.3008 14.1574 13.6874 14.2221 14.1179C14.2871 14.5485 14.5047 14.8796 14.875 15.1113C15.3195 15.3982 15.7963 15.4861 16.3054 15.375C16.8149 15.2639 17.2547 15.0139 17.625 14.625C17.9358 14.2661 18.2933 13.975 18.6975 13.7517C19.1017 13.5283 19.5543 13.4167 20.0554 13.4167Z" fill="white"/>
</g>
</svg>
