<svg width="40" height="40" viewBox="0 0 40 40" fill="none" xmlns="http://www.w3.org/2000/svg">
<mask id="mask0_33_43" style="mask-type:alpha" maskUnits="userSpaceOnUse" x="0" y="0" width="40" height="40">
<rect width="40" height="40" fill="#D9D9D9"/>
</mask>
<g mask="url(#mask0_33_43)">
<path d="M17.0554 37.8333C16.4287 37.8333 15.8825 37.64 15.4167 37.2533C14.9506 36.8667 14.6821 36.3656 14.6112 35.75L14.0696 32.1804C13.7824 32.0879 13.4629 31.9399 13.1112 31.7363C12.7593 31.5324 12.4583 31.3332 12.2083 31.1388L9 32.6113C8.41889 32.8518 7.82389 32.8829 7.215 32.7046C6.60639 32.5263 6.14125 32.1479 5.81958 31.5696L2.90291 26.3333C2.56958 25.8056 2.47 25.2385 2.60416 24.6321C2.73833 24.0254 3.06014 23.5324 3.56958 23.1529L6.48625 20.9583C6.46764 20.8189 6.45375 20.6592 6.44458 20.4792C6.43514 20.2992 6.43041 20.1395 6.43041 20C6.43041 19.8606 6.43514 19.7008 6.44458 19.5208C6.45375 19.3408 6.46764 19.1811 6.48625 19.0417L3.56958 16.8888C3.03236 16.5093 2.70361 16.0163 2.58333 15.4096C2.46305 14.8032 2.56958 14.2222 2.90291 13.6667L5.83 8.43918C6.13777 7.91501 6.59027 7.55099 7.1875 7.3471C7.78472 7.14349 8.375 7.1621 8.95833 7.40293L12.2917 8.87501C12.5231 8.69918 12.8054 8.51626 13.1387 8.32626C13.4721 8.13654 13.7824 7.99543 14.0696 7.90293L14.6112 4.30376C14.6851 3.64765 14.9547 3.12279 15.42 2.72918C15.885 2.33557 16.4301 2.13876 17.0554 2.13876H22.9446C23.5712 2.13876 24.1175 2.33487 24.5833 2.7271C25.0494 3.11904 25.3179 3.64057 25.3887 4.29168L25.9304 7.87501C26.214 7.98724 26.5326 8.13335 26.8862 8.31335C27.2399 8.49335 27.5417 8.68057 27.7917 8.87501L31 7.40293C31.5833 7.1621 32.176 7.14349 32.7779 7.3471C33.3796 7.55099 33.8368 7.91529 34.1496 8.44001L37.1283 13.6708C37.4408 14.2236 37.5369 14.8079 37.4167 15.4238C37.2964 16.0393 36.9676 16.5277 36.4304 16.8888L33.4721 18.9863C33.4907 19.1435 33.5093 19.3124 33.5279 19.4929C33.5462 19.6735 33.5554 19.8428 33.5554 20.0008C33.5554 20.1589 33.5439 20.3231 33.5208 20.4933C33.4978 20.6639 33.4769 20.8282 33.4583 20.9863L36.4167 23.1113C36.9536 23.4724 37.2824 23.9607 37.4029 24.5763C37.5232 25.1921 37.4271 25.774 37.1146 26.3221L34.1529 31.5696C33.8312 32.1202 33.3729 32.4915 32.7779 32.6838C32.1829 32.876 31.5949 32.8518 31.0137 32.6113L27.7362 31.1388C27.4862 31.3332 27.1992 31.5324 26.875 31.7363C26.5508 31.9399 26.236 32.0879 25.9304 32.1804L25.3887 35.75C25.3179 36.3656 25.0494 36.8667 24.5833 37.2533C24.1175 37.64 23.5712 37.8333 22.9446 37.8333H17.0554ZM19.9304 25.5554C21.4676 25.5554 22.7779 25.0138 23.8612 23.9304C24.9446 22.8471 25.4862 21.537 25.4862 20C25.4862 18.4631 24.9446 17.1529 23.8612 16.0696C22.7779 14.9863 21.4676 14.4446 19.9304 14.4446C18.3935 14.4446 17.0833 14.9863 16 16.0696C14.9167 17.1529 14.375 18.4631 14.375 20C14.375 21.537 14.9167 22.8471 16 23.9304C17.0833 25.0138 18.3935 25.5554 19.9304 25.5554Z" fill="white"/>
</g>
</svg>
