<svg width="37" height="37" viewBox="0 0 37 37" fill="none" xmlns="http://www.w3.org/2000/svg">
<mask id="mask0_33_5" style="mask-type:alpha" maskUnits="userSpaceOnUse" x="0" y="0" width="37" height="37">
<rect width="37" height="37" fill="#D9D9D9"/>
</mask>
<g mask="url(#mask0_33_5)">
<path d="M11.1987 9.13897L15.6479 3.36582C16.0076 2.90332 16.4388 2.5522 16.9414 2.31248C17.4439 2.07275 17.9643 1.95288 18.5023 1.95288C19.0403 1.95288 19.5599 2.07275 20.0609 2.31248C20.562 2.5522 20.9923 2.90332 21.3521 3.36582L25.8013 9.13897L32.5419 11.4083C33.3299 11.6737 33.9359 12.1329 34.3599 12.7858C34.7838 13.4387 34.9958 14.143 34.9958 14.8986C34.9958 15.2525 34.942 15.6126 34.8343 15.979C34.7267 16.3451 34.5621 16.6886 34.3406 17.0096L30.0498 23.1635L30.2039 29.7029C30.2124 30.7391 29.8377 31.6148 29.0797 32.3299C28.3217 33.0452 27.4316 33.4029 26.4095 33.4029C26.3866 33.4029 26.1183 33.3772 25.6044 33.3258L18.5 31.3602L11.401 33.3239C11.2432 33.3593 11.0914 33.3877 10.9454 33.409C10.7997 33.4306 10.6619 33.4414 10.5319 33.4414C9.49742 33.4414 8.60981 33.0758 7.86904 32.3445C7.12801 31.6133 6.78319 30.7241 6.83458 29.6771L6.98874 23.157L2.65936 16.9841C2.42066 16.6614 2.25184 16.3162 2.15292 15.9485C2.05374 15.5806 2.00415 15.2192 2.00415 14.8643C2.00415 14.0935 2.21549 13.386 2.63816 12.7418C3.06058 12.0977 3.6757 11.6532 4.48354 11.4083L11.1987 9.13897Z" fill="white"/>
</g>
</svg>
