<svg width="40" height="40" viewBox="0 0 40 40" fill="none" xmlns="http://www.w3.org/2000/svg">
<mask id="mask0_33_79" style="mask-type:alpha" maskUnits="userSpaceOnUse" x="0" y="0" width="40" height="40">
<rect width="40" height="40" fill="#D9D9D9"/>
</mask>
<g mask="url(#mask0_33_79)">
<path d="M12.0833 24.5417V35.6529C12.0833 36.2593 11.8711 36.7743 11.4467 37.1979C11.0219 37.6215 10.5057 37.8333 9.89791 37.8333C9.29013 37.8333 8.77555 37.6215 8.35416 37.1979C7.93277 36.7743 7.72208 36.2593 7.72208 35.6529V4.3471C7.72208 3.74071 7.93444 3.22112 8.35916 2.78835C8.7836 2.35529 9.29972 2.13876 9.90749 2.13876C10.5155 2.13876 11.0301 2.35529 11.4512 2.78835C11.8726 3.22112 12.0833 3.74071 12.0833 4.3471V5.29168H34.125C34.9003 5.29168 35.5039 5.61571 35.9358 6.26376C36.3675 6.9121 36.4305 7.60196 36.125 8.33335L33.3471 14.9167L36.125 21.5C36.4305 22.2314 36.3675 22.9213 35.9358 23.5696C35.5039 24.2177 34.9003 24.5417 34.125 24.5417H12.0833ZM23.4375 17.1121C24.0439 16.5018 24.3471 15.7681 24.3471 14.9108C24.3471 14.0536 24.0419 13.3218 23.4317 12.7154C22.8211 12.1088 22.0874 11.8054 21.2304 11.8054C20.3732 11.8054 19.6412 12.1107 19.0346 12.7213C18.4282 13.3315 18.125 14.0653 18.125 14.9225C18.125 15.7797 18.4303 16.5115 19.0408 17.1179C19.6511 17.7246 20.3849 18.0279 21.2421 18.0279C22.0993 18.0279 22.8311 17.7227 23.4375 17.1121Z" fill="white"/>
</g>
</svg>
