<svg width="40" height="40" viewBox="0 0 40 40" fill="none" xmlns="http://www.w3.org/2000/svg">
<mask id="mask0_4_248" style="mask-type:alpha" maskUnits="userSpaceOnUse" x="0" y="0" width="40" height="40">
<rect width="40" height="40" fill="#D9D9D9"/>
</mask>
<g mask="url(#mask0_4_248)">
<path d="M20 23.0554L12 31.0554C11.5742 31.4815 11.0649 31.6946 10.4721 31.6946C9.87959 31.6946 9.37042 31.4815 8.94459 31.0554C8.51848 30.6296 8.30542 30.1204 8.30542 29.5279C8.30542 28.9351 8.51848 28.4258 8.94459 28L16.9446 20L8.94459 12C8.51848 11.5742 8.30542 11.0649 8.30542 10.4721C8.30542 9.87959 8.51848 9.37042 8.94459 8.94459C9.37042 8.51847 9.87959 8.30542 10.4721 8.30542C11.0649 8.30542 11.5742 8.51847 12 8.94459L20 16.9446L28 8.94459C28.4258 8.51847 28.9351 8.30542 29.5279 8.30542C30.1204 8.30542 30.6296 8.51847 31.0554 8.94459C31.4815 9.37042 31.6946 9.87959 31.6946 10.4721C31.6946 11.0649 31.4815 11.5742 31.0554 12L23.0554 20L31.0554 28C31.4815 28.4258 31.6946 28.9351 31.6946 29.5279C31.6946 30.1204 31.4815 30.6296 31.0554 31.0554C30.6296 31.4815 30.1204 31.6946 29.5279 31.6946C28.9351 31.6946 28.4258 31.4815 28 31.0554L20 23.0554Z" fill="white"/>
</g>
</svg>
