<svg width="40" height="40" viewBox="0 0 40 40" fill="none" xmlns="http://www.w3.org/2000/svg">
<mask id="mask0_33_85" style="mask-type:alpha" maskUnits="userSpaceOnUse" x="0" y="0" width="40" height="40">
<rect width="40" height="40" fill="#D9D9D9"/>
</mask>
<g mask="url(#mask0_33_85)">
<path d="M15.7779 25.1804H24.1946L25.5137 28.8613C25.6301 29.1968 25.8336 29.4704 26.1242 29.6821C26.4147 29.894 26.7437 30 27.1112 30C27.7224 30 28.1946 29.7431 28.5279 29.2292C28.8612 28.7153 28.921 28.1692 28.7071 27.5908L22.3054 11.1113C22.1851 10.7779 21.9751 10.5093 21.6754 10.3054C21.3754 10.1018 21.0308 10 20.6417 10H19.32C18.9308 10 18.5862 10.106 18.2862 10.3179C17.9862 10.5296 17.789 10.8032 17.6946 11.1388L11.2375 27.7313C11.0236 28.2993 11.0833 28.8195 11.4167 29.2917C11.75 29.7639 12.2218 30 12.8321 30C13.1749 30 13.4922 29.8958 13.7842 29.6875C14.0761 29.4792 14.2835 29.2053 14.4062 28.8658L15.7779 25.1804ZM16.7779 22.2638L19.9446 13.3196H20L23.125 22.2638H16.7779ZM6.52791 37.8333C5.31402 37.8333 4.2836 37.41 3.43666 36.5633C2.58999 35.7164 2.16666 34.686 2.16666 33.4721V6.52793C2.16666 5.30626 2.58999 4.26932 3.43666 3.4171C4.2836 2.56487 5.31402 2.13876 6.52791 2.13876H33.4721C34.6937 2.13876 35.7307 2.56487 36.5829 3.4171C37.4351 4.26932 37.8612 5.30626 37.8612 6.52793V33.4721C37.8612 34.686 37.4351 35.7164 36.5829 36.5633C35.7307 37.41 34.6937 37.8333 33.4721 37.8333H6.52791Z" fill="white"/>
</g>
</svg>
