<svg xmlns="http://www.w3.org/2000/svg" height="24px" viewBox="0 -960 960 960" width="24px" fill="#112559"><path d="M677-282.5q20-19.5 20-49.03t-19.97-50Q657.06-402 627.53-402t-50.03 20.47q-20.5 20.47-20.5 50t20.47 49.03q20.47 19.5 50 19.5T677-282.5ZM530-430q20-20 20-50t-20-50q-20-20-50-20t-50 20q-20 20-20 50t20 50q20 20 50 20t50-20ZM381.53-577.47q20.47-20.47 20.47-50T381.53-677q-20.47-20-50-20t-49.03 19.97q-19.5 19.97-19.5 49.5t19.5 50.03Q302-557 331.53-557t50-20.47ZM212-76q-57.4 0-96.7-39.3Q76-154.6 76-212v-536q0-57.4 39.3-96.7Q154.6-884 212-884h536q57.4 0 96.7 39.3Q884-805.4 884-748v536q0 57.4-39.3 96.7Q805.4-76 748-76H212Z"/></svg>
