<svg width="40" height="40" viewBox="0 0 40 40" fill="none" xmlns="http://www.w3.org/2000/svg">
<mask id="mask0_33_61" style="mask-type:alpha" maskUnits="userSpaceOnUse" x="0" y="0" width="40" height="40">
<rect width="40" height="40" fill="#D9D9D9"/>
</mask>
<g mask="url(#mask0_33_61)">
<path d="M13.9721 26.3054H9.11124C8.22235 26.3054 7.56958 25.9189 7.15291 25.1458C6.73624 24.3728 6.78708 23.6158 7.30541 22.875L22.5971 0.833342C22.9026 0.407509 23.2893 0.122787 23.7571 -0.0208242C24.2246 -0.164435 24.6899 -0.148186 25.1529 0.0279251C25.6157 0.203758 25.9837 0.511538 26.2571 0.95126C26.5301 1.39126 26.6343 1.86126 26.5696 2.36126L24.9446 15.3333H31.2083C32.1342 15.3333 32.7915 15.75 33.1804 16.5833C33.5693 17.4167 33.4768 18.1899 32.9029 18.9029L16.2362 39C15.9212 39.3981 15.5276 39.6481 15.0554 39.75C14.5832 39.852 14.1203 39.8057 13.6667 39.6113C13.213 39.4168 12.8704 39.1089 12.6387 38.6875C12.4074 38.2661 12.324 37.8008 12.3887 37.2917L13.9721 26.3054Z" fill="white"/>
</g>
</svg>
