<svg width="40" height="40" viewBox="0 0 40 40" fill="none" xmlns="http://www.w3.org/2000/svg">
<mask id="mask0_34_109" style="mask-type:alpha" maskUnits="userSpaceOnUse" x="0" y="0" width="40" height="40">
<rect width="40" height="40" fill="#D9D9D9"/>
</mask>
<g mask="url(#mask0_34_109)">
<path d="M28.5138 33.2917C28.2268 33.4861 27.9282 33.6667 27.6179 33.8333C27.3079 34 26.9908 34.1482 26.6667 34.2779C26.2408 34.4815 25.8172 34.4838 25.3958 34.2846C24.9744 34.0857 24.6897 33.7547 24.5417 33.2917C24.4214 32.9769 24.4099 32.6621 24.5071 32.3471C24.6043 32.0324 24.7686 31.7593 25 31.5279C25.2222 31.4538 25.4306 31.3657 25.625 31.2638C25.8194 31.1621 26.0093 31.0371 26.1946 30.8888L20.6804 25.25V30.875C20.6804 31.8564 20.2314 32.5324 19.3333 32.9029C18.4353 33.2732 17.6343 33.1065 16.9304 32.4029L10.7221 26.1667H5.54167C4.93055 26.1667 4.41431 25.956 3.99292 25.5346C3.57181 25.1135 3.36125 24.5974 3.36125 23.9863V16.0138C3.36125 15.4026 3.57181 14.8818 3.99292 14.4513C4.41431 14.0207 4.93055 13.8054 5.54167 13.8054H9.52792L2.08333 6.18042C1.75 5.84709 1.59028 5.46292 1.60417 5.02792C1.61805 4.59264 1.79167 4.20834 2.125 3.875C2.45833 3.54167 2.84722 3.37737 3.29167 3.38209C3.73611 3.38653 4.125 3.55542 4.45833 3.88876L35.1388 35.25C35.4721 35.5833 35.6388 35.9676 35.6388 36.4029C35.6388 36.8379 35.4721 37.2221 35.1388 37.5554C34.8054 37.9074 34.4096 38.0833 33.9513 38.0833C33.4929 38.0833 33.0971 37.9074 32.7638 37.5554L28.5138 33.2917ZM32.9446 19.9583C32.9446 17.5047 32.2617 15.2732 30.8958 13.2638C29.53 11.2546 27.736 9.75459 25.5138 8.76376C25.0971 8.59709 24.8101 8.31237 24.6529 7.90959C24.4954 7.50681 24.5139 7.0925 24.7083 6.66667C24.8842 6.23139 25.1851 5.92584 25.6112 5.75001C26.0371 5.57417 26.4722 5.57876 26.9167 5.76376C29.7131 6.98598 31.9654 8.87028 33.6738 11.4167C35.3821 13.9631 36.2363 16.8103 36.2363 19.9583C36.2363 20.9675 36.1413 21.949 35.9513 22.9029C35.7615 23.8565 35.4768 24.7824 35.0971 25.6804C34.8471 26.2915 34.5092 26.6713 34.0833 26.8196C33.6575 26.9676 33.2454 26.9629 32.8471 26.8054C32.449 26.6482 32.1389 26.389 31.9167 26.0279C31.6944 25.6668 31.676 25.264 31.8612 24.8196C32.2037 24.0879 32.4629 23.3078 32.6388 22.4792C32.8149 21.6506 32.9168 20.8103 32.9446 19.9583ZM25.3196 13.625C26.3657 14.3936 27.1967 15.3172 27.8125 16.3958C28.4283 17.4744 28.7362 18.6758 28.7362 20C28.7362 20.1111 28.7315 20.2361 28.7221 20.375C28.7129 20.5139 28.7083 20.6389 28.7083 20.75C28.6806 21.2036 28.4375 21.4999 27.9792 21.6388C27.5208 21.7776 27.1111 21.6526 26.75 21.2638L24.625 19.125C24.4119 18.912 24.2568 18.6735 24.1596 18.4096C24.0624 18.1457 24.0138 17.8749 24.0138 17.5971V14.4029C24.0138 14.0418 24.155 13.7756 24.4375 13.6042C24.72 13.4328 25.014 13.4397 25.3196 13.625ZM15.9167 10.1529C15.7036 9.93987 15.5994 9.68056 15.6042 9.37501C15.6089 9.06945 15.7176 8.81014 15.9304 8.59709L16.9304 7.59709C17.6343 6.89348 18.4353 6.72681 19.3333 7.09709C20.2314 7.46764 20.6804 8.13431 20.6804 9.09709V12.3333C20.6804 12.8242 20.4512 13.1575 19.9929 13.3333C19.5346 13.5092 19.1342 13.4258 18.7917 13.0833L15.9167 10.1529Z" fill="white"/>
</g>
</svg>
