<svg width="48" height="48" viewBox="0 0 48 48" fill="none" xmlns="http://www.w3.org/2000/svg">
<mask id="mask0_4_260" style="mask-type:alpha" maskUnits="userSpaceOnUse" x="0" y="0" width="48" height="48">
<rect width="48" height="48" fill="#D9D9D9"/>
</mask>
<g mask="url(#mask0_4_260)">
<path d="M21.45 19.0665L16.1665 24.25C15.6555 24.761 15.0445 25.011 14.3335 25C13.6222 24.989 13.011 24.7278 12.5 24.2165C11.989 23.7055 11.7335 23.0945 11.7335 22.3835C11.7335 21.6722 11.989 21.061 12.5 20.55L22.15 10.8665C22.6723 10.3445 23.3002 10.0835 24.0335 10.0835C24.7668 10.0835 25.3945 10.3445 25.9165 10.8665L35.5665 20.55C36.0778 21.061 36.3335 21.6722 36.3335 22.3835C36.3335 23.0945 36.0778 23.7055 35.5665 24.2165C35.0555 24.7278 34.4445 24.9835 33.7335 24.9835C33.0222 24.9835 32.411 24.7278 31.9 24.2165L26.6835 19V34.5835C26.6835 35.3168 26.4307 35.9362 25.925 36.4415C25.4193 36.9472 24.7998 37.2 24.0665 37.2C23.3332 37.2 22.7138 36.9472 22.2085 36.4415C21.7028 35.9362 21.45 35.3168 21.45 34.5835V19.0665Z" fill="white"/>
</g>
</svg>
