<svg width="40" height="40" viewBox="0 0 40 40" fill="none" xmlns="http://www.w3.org/2000/svg">
<mask id="mask0_35_121" style="mask-type:alpha" maskUnits="userSpaceOnUse" x="0" y="0" width="40" height="40">
<rect width="40" height="40" fill="#D9D9D9"/>
</mask>
<g mask="url(#mask0_35_121)">
<path d="M23.9167 4.06958L26.8471 7C27.1804 7.33333 27.3401 7.72681 27.3263 8.18042C27.3124 8.63431 27.1388 9.02792 26.8054 9.36125C26.4721 9.69458 26.074 9.86125 25.6112 9.86125C25.1482 9.86125 24.75 9.69458 24.4167 9.36125L17.0971 2.08333C16.7454 1.75 16.639 1.36806 16.7779 0.9375C16.9168 0.506944 17.2315 0.25 17.7221 0.166667C18.0832 0.111111 18.4536 0.0694444 18.8333 0.0416667C19.2131 0.0138889 19.5835 0 19.9446 0C22.7129 0 25.3124 0.525417 27.7429 1.57625C30.1735 2.62736 32.2985 4.06264 34.1179 5.88208C35.9374 7.70153 37.3726 9.82653 38.4238 12.2571C39.4746 14.6876 40 17.2871 40 20.0554C40 20.5185 39.8449 20.9051 39.5346 21.2154C39.2246 21.5254 38.8381 21.6804 38.375 21.6804C37.9119 21.6804 37.5185 21.5254 37.1946 21.2154C36.8704 20.9051 36.7083 20.5185 36.7083 20.0554C36.7083 18.1204 36.3935 16.271 35.7638 14.5071C35.1343 12.7432 34.2501 11.1482 33.1113 9.72208C31.9724 8.29625 30.6228 7.09264 29.0625 6.11125C27.5022 5.12958 25.7869 4.44903 23.9167 4.06958ZM16.1667 35.9863L13.1804 33C12.8471 32.6667 12.6921 32.2732 12.7154 31.8196C12.7385 31.3657 12.9167 30.9721 13.25 30.6388C13.5833 30.3054 13.9815 30.1388 14.4446 30.1388C14.9074 30.1388 15.3054 30.3054 15.6388 30.6388L22.875 37.8333C23.2453 38.2036 23.3518 38.6133 23.1946 39.0625C23.0371 39.5117 22.7222 39.7779 22.25 39.8613C21.8519 39.8982 21.4631 39.9351 21.0833 39.9721C20.7036 40.0093 20.324 40.0279 19.9446 40.0279C17.1946 40.0279 14.6089 39.5071 12.1875 38.4654C9.76611 37.4237 7.65042 35.9932 5.84042 34.1738C4.03014 32.3543 2.60417 30.2339 1.5625 27.8125C0.520833 25.3911 0 22.8054 0 20.0554C0 19.5926 0.162083 19.1992 0.48625 18.875C0.810139 18.5508 1.20361 18.3888 1.66667 18.3888C2.12972 18.3888 2.51625 18.5508 2.82625 18.875C3.13653 19.1992 3.29167 19.5926 3.29167 20.0554C3.29167 21.9907 3.61111 23.8403 4.25 25.6042C4.88889 27.3681 5.77778 28.9583 6.91667 30.375C8.05556 31.7917 9.4143 32.9861 10.9929 33.9583C12.5718 34.9306 14.2964 35.6065 16.1667 35.9863ZM16.5 18.1112C16.9536 18.1112 17.3356 17.9561 17.6458 17.6458C17.9561 17.3356 18.1113 16.9536 18.1113 16.5C18.1113 16.0647 17.9561 15.6921 17.6458 15.3821C17.3356 15.0718 16.9536 14.9167 16.5 14.9167C16.0647 14.9167 15.6921 15.0718 15.3821 15.3821C15.0718 15.6921 14.9167 16.0647 14.9167 16.5C14.9167 16.9536 15.0718 17.3356 15.3821 17.6458C15.6921 17.9561 16.0647 18.1112 16.5 18.1112ZM20.6 31.4721L8.41833 19.375C7.96389 18.9306 7.63708 18.4306 7.43792 17.875C7.23847 17.3194 7.13875 16.75 7.13875 16.1667C7.13875 15.5833 7.23847 15.0139 7.43792 14.4583C7.63708 13.9028 7.96431 13.4018 8.41958 12.9554L13.0983 8.31167C13.5439 7.865 14.0451 7.53014 14.6021 7.30708C15.159 7.08375 15.7293 6.97208 16.3129 6.97208C16.8968 6.97208 17.4668 7.08361 18.0229 7.30667C18.5788 7.52944 19.079 7.86361 19.5238 8.30917L31.6675 20.4733C32.0936 20.9169 32.4129 21.4165 32.6254 21.9721C32.8382 22.5276 32.9446 23.1018 32.9446 23.6946C32.9446 24.2871 32.8404 24.8542 32.6321 25.3958C32.424 25.9375 32.1022 26.4306 31.6667 26.875L26.9846 31.4721C26.539 31.9165 26.0446 32.2453 25.5013 32.4583C24.9582 32.6714 24.3901 32.7779 23.7971 32.7779C23.204 32.7779 22.6294 32.6714 22.0733 32.4583C21.5172 32.2453 21.0261 31.9165 20.6 31.4721Z" fill="white"/>
</g>
</svg>
