<svg width="40" height="40" viewBox="0 0 40 40" fill="none" xmlns="http://www.w3.org/2000/svg">
<mask id="mask0_5_497" style="mask-type:alpha" maskUnits="userSpaceOnUse" x="0" y="0" width="40" height="40">
<rect width="40" height="40" fill="#D9D9D9"/>
</mask>
<g mask="url(#mask0_5_497)">
<path d="M10.2362 20C10.2362 20.4814 10.2663 20.9328 10.3263 21.3542C10.3865 21.7756 10.4583 22.1946 10.5417 22.6113C10.6992 23.2038 10.6946 23.7917 10.5279 24.375C10.3613 24.9583 10.014 25.4074 9.48625 25.7221C8.95847 26.0371 8.4075 26.102 7.83333 25.9167C7.25917 25.7314 6.87486 25.3703 6.68042 24.8333C6.40264 24.0556 6.19903 23.2685 6.06958 22.4721C5.93986 21.676 5.875 20.852 5.875 20C5.875 16.2036 7.23611 12.9096 9.95833 10.1179C12.6806 7.32626 15.9167 5.93043 19.6667 5.93043H20.9721L19.4721 4.43043C19.1574 4.11571 19.0024 3.75001 19.0071 3.33335C19.0115 2.91668 19.1804 2.55098 19.5138 2.23626C19.8287 1.92126 20.1992 1.76376 20.625 1.76376C21.0508 1.76376 21.4213 1.92126 21.7362 2.23626L26.0696 6.54168C26.5046 6.97696 26.7221 7.50015 26.7221 8.11126C26.7221 8.72237 26.5046 9.24543 26.0696 9.68043L21.7638 13.9863C21.449 14.301 21.074 14.4583 20.6388 14.4583C20.2037 14.4583 19.8287 14.301 19.5138 13.9863C19.1804 13.6713 19.0185 13.2893 19.0279 12.8404C19.0371 12.3913 19.199 12.0093 19.5138 11.6946L20.9167 10.2917H19.7638C17.1621 10.2917 14.9238 11.2477 13.0488 13.1596C11.1738 15.0718 10.2362 17.352 10.2362 20ZM29.7638 20.0554C29.7638 19.5927 29.7383 19.146 29.6875 18.7154C29.6367 18.2849 29.5603 17.8613 29.4583 17.4446C29.3008 16.8518 29.3008 16.2638 29.4583 15.6804C29.6158 15.0971 29.9585 14.6481 30.4862 14.3333C30.9954 14.0186 31.5301 13.9468 32.0904 14.1179C32.6504 14.2893 33.0369 14.6296 33.25 15.1388C33.5556 15.9443 33.7778 16.7546 33.9167 17.5696C34.0556 18.3843 34.125 19.2129 34.125 20.0554C34.125 23.8704 32.7639 27.1807 30.0417 29.9863C27.3194 32.7918 24.0926 34.1946 20.3613 34.1946H18.9721L20.4304 35.6529C20.7637 35.9677 20.9258 36.3333 20.9167 36.75C20.9075 37.1667 20.7454 37.5324 20.4304 37.8471C20.0971 38.1621 19.7199 38.3196 19.2988 38.3196C18.8774 38.3196 18.5093 38.1621 18.1946 37.8471L13.8613 33.5417C13.426 33.1064 13.2107 32.5902 13.2154 31.9929C13.2199 31.3957 13.4351 30.8796 13.8613 30.4446L18.2363 26.1113C18.5324 25.7963 18.8957 25.6318 19.3263 25.6179C19.7568 25.604 20.1342 25.7592 20.4583 26.0833C20.7825 26.4075 20.9446 26.7802 20.9446 27.2013C20.9446 27.6227 20.7871 27.9907 20.4721 28.3054L18.9721 29.8054H20.2363C22.8379 29.8054 25.0763 28.8471 26.9513 26.9304C28.8263 25.0138 29.7638 22.7221 29.7638 20.0554Z" fill="white"/>
</g>
</svg>
