<svg width="40" height="40" viewBox="0 0 40 40" fill="none" xmlns="http://www.w3.org/2000/svg">
<mask id="mask0_33_91" style="mask-type:alpha" maskUnits="userSpaceOnUse" x="0" y="0" width="40" height="40">
<rect width="40" height="40" fill="#D9D9D9"/>
</mask>
<g mask="url(#mask0_33_91)">
<path d="M33.1387 19.9583C33.1387 17.5047 32.456 15.2732 31.0904 13.2637C29.7246 11.2546 27.9306 9.75457 25.7083 8.76374C25.2917 8.59707 25.0046 8.31235 24.8471 7.90957C24.6899 7.50679 24.7085 7.09248 24.9029 6.66665C25.0787 6.23137 25.3796 5.92582 25.8054 5.74998C26.2315 5.57415 26.6668 5.57874 27.1112 5.76374C29.9351 7.01374 32.1943 8.91193 33.8887 11.4583C35.5832 14.0047 36.4304 16.838 36.4304 19.9583C36.4304 23.0786 35.5832 25.9119 33.8887 28.4583C32.1943 31.0047 29.9351 32.9029 27.1112 34.1529C26.6668 34.3379 26.2315 34.3425 25.8054 34.1667C25.3796 33.9908 25.0787 33.6853 24.9029 33.25C24.7085 32.8242 24.6899 32.4098 24.8471 32.0071C25.0046 31.6043 25.2917 31.3103 25.7083 31.125C27.9306 30.1528 29.7246 28.6621 31.0904 26.6529C32.456 24.6435 33.1387 22.4119 33.1387 19.9583ZM10.9304 26.1667H5.77791C5.14819 26.1667 4.62264 25.956 4.20125 25.5346C3.78014 25.1135 3.56958 24.5973 3.56958 23.9862V16.0137C3.56958 15.4026 3.78014 14.8818 4.20125 14.4512C4.62264 14.0207 5.14819 13.8054 5.77791 13.8054H10.9304L17.1667 7.59707C17.8519 6.89346 18.6482 6.72679 19.5554 7.09707C20.4629 7.46762 20.9167 8.13429 20.9167 9.09707V30.875C20.9167 31.8564 20.4629 32.5323 19.5554 32.9029C18.6482 33.2732 17.8519 33.1065 17.1667 32.4029L10.9304 26.1667ZM28.9304 20C28.9304 21.3889 28.5786 22.6667 27.875 23.8333C27.1714 25 26.1946 25.9305 24.9446 26.625C24.639 26.7917 24.3543 26.7847 24.0904 26.6042C23.8265 26.4236 23.6946 26.1621 23.6946 25.8196V14.125C23.6946 13.7825 23.8265 13.5279 24.0904 13.3612C24.3543 13.1946 24.639 13.1946 24.9446 13.3612C26.1946 14.0648 27.1714 15.0046 27.875 16.1804C28.5786 17.3565 28.9304 18.6297 28.9304 20Z" fill="white"/>
</g>
</svg>
