<svg width="32" height="32" viewBox="0 0 32 32" fill="none" xmlns="http://www.w3.org/2000/svg">
<mask id="mask0_33_2" style="mask-type:alpha" maskUnits="userSpaceOnUse" x="0" y="0" width="32" height="32">
<rect width="32" height="32" fill="#D9D9D9"/>
</mask>
<g mask="url(#mask0_33_2)">
<path d="M17.3777 16.8666V12C17.3777 11.6273 17.2518 11.312 17 11.054C16.7482 10.7958 16.4297 10.6666 16.0443 10.6666C15.6592 10.6666 15.3408 10.7925 15.089 11.0443C14.837 11.2963 14.711 11.6163 14.711 12.0043V17.3333C14.711 17.5822 14.7537 17.8055 14.839 18.0033C14.9241 18.2011 15.0519 18.3778 15.2223 18.5333L18.7557 22.0666C19.0254 22.3482 19.3421 22.4834 19.7057 22.4723C20.069 22.4612 20.3886 22.3178 20.6643 22.042C20.9399 21.7664 21.0777 21.4469 21.0777 21.0833C21.0777 20.7198 20.937 20.4031 20.6557 20.1333L17.3777 16.8666ZM10.9667 29.211C9.39622 28.537 8.024 27.6166 6.85 26.45C5.676 25.2833 4.75189 23.9131 4.07767 22.3393C3.40367 20.7655 3.06667 19.0894 3.06667 17.311C3.06667 15.5408 3.40367 13.8704 4.07767 12.3C4.75189 10.7295 5.676 9.35732 6.85 8.18332C8.024 7.00932 9.39622 6.08154 10.9667 5.39998C12.5371 4.71843 14.2074 4.37765 15.9777 4.37765C17.7481 4.37765 19.4186 4.71843 20.989 5.39998C22.5592 6.08154 23.9314 7.00932 25.1057 8.18332C26.2797 9.35732 27.2074 10.7295 27.889 12.3C28.5703 13.8704 28.911 15.5408 28.911 17.311C28.911 19.0963 28.5703 20.7741 27.889 22.3443C27.2074 23.9148 26.2797 25.2833 25.1057 26.45C23.9314 27.6166 22.5592 28.537 20.989 29.211C19.4186 29.8852 17.7481 30.2223 15.9777 30.2223C14.2074 30.2223 12.5371 29.8852 10.9667 29.211ZM1.46333 9.03332C1.19155 8.76265 1.06489 8.45054 1.08333 8.09698C1.10178 7.74343 1.24433 7.42587 1.511 7.14432L5.911 2.83332C6.17767 2.58154 6.49067 2.45932 6.85 2.46665C7.20933 2.47398 7.51489 2.60621 7.76667 2.86332C8.04822 3.13487 8.18522 3.44832 8.17767 3.80365C8.17033 4.15898 8.02589 4.47254 7.74433 4.74432L3.34433 9.05565C3.07255 9.32232 2.75533 9.45187 2.39267 9.44432C2.03 9.43698 1.72022 9.29998 1.46333 9.03332ZM30.4923 9.03332C30.2354 9.29998 29.9257 9.43698 29.563 9.44432C29.2001 9.45187 28.8828 9.32232 28.611 9.05565L24.211 4.74432C23.9297 4.48743 23.7852 4.17765 23.7777 3.81498C23.7703 3.4521 23.9074 3.13487 24.189 2.86332C24.4408 2.60621 24.7481 2.47587 25.111 2.47232C25.4741 2.46854 25.7938 2.59743 26.07 2.85898L30.4777 7.17765C30.7443 7.43721 30.8814 7.74465 30.889 8.09998C30.8963 8.45554 30.7641 8.76665 30.4923 9.03332Z" fill="white"/>
</g>
</svg>
