<svg width="40" height="40" viewBox="0 0 40 40" fill="none" xmlns="http://www.w3.org/2000/svg">
<mask id="mask0_33_73" style="mask-type:alpha" maskUnits="userSpaceOnUse" x="0" y="0" width="40" height="40">
<rect width="40" height="40" fill="#D9D9D9"/>
</mask>
<g mask="url(#mask0_33_73)">
<path d="M10.1946 18.0554V11.3333H6.19459V13.1113C6.19459 14.2963 6.56959 15.3402 7.31959 16.2429C8.06959 17.1457 9.02792 17.7499 10.1946 18.0554ZM29.8333 18.0554C30.9814 17.7499 31.9351 17.1457 32.6946 16.2429C33.4538 15.3402 33.8333 14.2963 33.8333 13.1113V11.3333H29.8333V18.0554ZM17.8196 32.2221V27.8196C16.3474 27.449 15.0325 26.7985 13.875 25.8679C12.7175 24.9374 11.8471 23.7915 11.2638 22.4304C8.64348 22.5138 6.41209 21.6411 4.56959 19.8125C2.72681 17.9839 1.80542 15.7502 1.80542 13.1113V11.3333C1.80542 10.1064 2.23028 9.06821 3.08 8.21876C3.92945 7.36932 4.96764 6.9446 6.19459 6.9446H10.1946V6.16668C10.1946 5.4214 10.4665 4.7721 11.0104 4.21876C11.5543 3.66543 12.2082 3.38876 12.9721 3.38876H27.0554C27.801 3.38876 28.4503 3.66543 29.0033 4.21876C29.5567 4.7721 29.8333 5.4214 29.8333 6.16668V6.9446H33.8333C35.0417 6.9446 36.0706 7.36932 36.92 8.21876C37.7697 9.06821 38.1946 10.1064 38.1946 11.3333V13.1113C38.1946 15.7502 37.2732 17.9839 35.4304 19.8125C33.5879 21.6411 31.3565 22.5138 28.7363 22.4304C28.1529 23.7915 27.2825 24.9374 26.125 25.8679C24.9675 26.7985 23.6526 27.449 22.1804 27.8196V32.2221H25.9304C26.5371 32.2221 27.0522 32.4345 27.4758 32.8592C27.8994 33.2836 28.1113 33.7997 28.1113 34.4075C28.1113 35.0156 27.8994 35.5302 27.4758 35.9513C27.0522 36.3727 26.5371 36.5833 25.9304 36.5833H14.0696C13.4629 36.5833 12.9478 36.3711 12.5242 35.9467C12.1006 35.522 11.8888 35.0057 11.8888 34.3979C11.8888 33.7902 12.1006 33.2756 12.5242 32.8542C12.9478 32.4328 13.4629 32.2221 14.0696 32.2221H17.8196Z" fill="white"/>
</g>
</svg>
