<svg width="40" height="40" viewBox="0 0 40 40" fill="none" xmlns="http://www.w3.org/2000/svg">
<mask id="mask0_34_115" style="mask-type:alpha" maskUnits="userSpaceOnUse" x="0" y="0" width="40" height="40">
<rect width="40" height="40" fill="#D9D9D9"/>
</mask>
<g mask="url(#mask0_34_115)">
<path d="M13.8196 36.2083C12.584 36.2083 11.5436 35.7836 10.6983 34.9342C9.85305 34.0844 9.43041 33.0554 9.43041 31.8471V8.19459C9.43041 6.95903 9.85305 5.91861 10.6983 5.07334C11.5436 4.22806 12.584 3.80542 13.8196 3.80542H26.25C27.4855 3.80542 28.5258 4.22806 29.3708 5.07334C30.2161 5.91861 30.6387 6.95903 30.6387 8.19459V31.8471C30.6387 33.0554 30.2161 34.0844 29.3708 34.9342C28.5258 35.7836 27.4855 36.2083 26.25 36.2083H13.8196ZM21.1529 13.8196C21.4768 13.4954 21.6387 13.1018 21.6387 12.6388C21.6387 12.176 21.4768 11.7825 21.1529 11.4583C20.8287 11.1342 20.4351 10.9721 19.9721 10.9721C19.5093 10.9721 19.1158 11.1342 18.7917 11.4583C18.4675 11.7825 18.3054 12.176 18.3054 12.6388C18.3054 13.1018 18.4675 13.4954 18.7917 13.8196C19.1158 14.1435 19.5093 14.3054 19.9721 14.3054C20.4351 14.3054 20.8287 14.1435 21.1529 13.8196ZM-1.70834 23.1838V16.8054C-1.70834 16.3443 -1.54376 15.9513 -1.21459 15.6263C-0.885427 15.3013 -0.487371 15.1388 -0.0204269 15.1388C0.446795 15.1388 0.837906 15.2974 1.15291 15.6146C1.46763 15.9318 1.62499 16.3324 1.62499 16.8163V23.1946C1.62499 23.6557 1.46596 24.0488 1.14791 24.3738C0.829851 24.6988 0.437212 24.8613 -0.0300102 24.8613C-0.497232 24.8613 -0.89376 24.7026 -1.21959 24.3854C-1.54543 24.0682 -1.70834 23.6676 -1.70834 23.1838ZM3.84707 26.7446V13.25C3.84707 12.7889 4.01166 12.3958 4.34082 12.0708C4.66999 11.7458 5.06818 11.5833 5.53541 11.5833C6.00263 11.5833 6.3936 11.7419 6.70832 12.0592C7.02305 12.3761 7.18041 12.7749 7.18041 13.2554V26.75C7.18041 27.2111 7.02138 27.6042 6.70332 27.9292C6.38527 28.2542 5.99263 28.4167 5.52541 28.4167C5.05846 28.4167 4.66193 28.2581 4.33582 27.9408C4.00999 27.6239 3.84707 27.2251 3.84707 26.7446ZM38.4167 23.1838V16.8054C38.4167 16.3443 38.5757 15.9513 38.8937 15.6263C39.2118 15.3013 39.6044 15.1388 40.0717 15.1388C40.5389 15.1388 40.9354 15.2974 41.2612 15.6146C41.5871 15.9318 41.75 16.3324 41.75 16.8163V23.1946C41.75 23.6557 41.5854 24.0488 41.2562 24.3738C40.9271 24.6988 40.529 24.8613 40.0621 24.8613C39.5949 24.8613 39.2037 24.7026 38.8887 24.3854C38.574 24.0682 38.4167 23.6676 38.4167 23.1838ZM32.8612 26.7446V13.25C32.8612 12.7889 33.0203 12.3958 33.3383 12.0708C33.6564 11.7458 34.049 11.5833 34.5162 11.5833C34.9832 11.5833 35.3797 11.7419 35.7058 12.0592C36.0317 12.3761 36.1946 12.7749 36.1946 13.2554V26.75C36.1946 27.2111 36.03 27.6042 35.7008 27.9292C35.3717 28.2542 34.9735 28.4167 34.5062 28.4167C34.039 28.4167 33.648 28.2581 33.3333 27.9408C33.0186 27.6239 32.8612 27.2251 32.8612 26.7446Z" fill="white"/>
</g>
</svg>
